<!DOCTYPE svg PUBLIC "-//W3C//DTD SVG 1.1//EN" "http://www.w3.org/Graphics/SVG/1.1/DTD/svg11.dtd">
<svg width="100%" height="100%" viewBox="0 0 1024 1024" version="1.1" xmlns="http://www.w3.org/2000/svg" xmlns:xlink="http://www.w3.org/1999/xlink" xml:space="preserve" xmlns:serif="http://www.serif.com/" style="fill-rule:evenodd;clip-rule:evenodd;stroke-linejoin:round;stroke-miterlimit:2;">
        <path id="path1" d="M427.441,136.017C425.656,132.91 422.344,130.996 418.76,131C392.56,131.03 284.692,131.154 243.989,131.2C240.577,131.204 237.403,132.947 235.568,135.824C233.734,138.7 233.493,142.314 234.929,145.409C249.247,176.276 282.718,248.429 292.437,269.379C294.077,272.915 297.622,275.175 301.52,275.171C329.994,275.138 445.813,275.003 490.017,274.952C493.584,274.948 496.879,273.044 498.664,269.956C500.449,266.867 500.453,263.062 498.676,259.969C480.47,228.29 438.772,155.734 427.441,136.017ZM414.502,579.28L451.979,510.802L513,403C513,403 466.614,340.583 454.182,323.854C452.275,321.288 449.256,319.789 446.059,319.819C422.271,320.048 321.456,321.017 280.706,321.408C277.144,321.442 273.87,323.368 272.109,326.464C270.348,329.56 270.367,333.359 272.158,336.437C296.376,378.041 366.249,497.933 414.502,579.28C433.267,610.915 449.751,644.225 470.938,673.28C492.043,702.222 533.13,703.908 555.385,675.278C670.991,526.557 812.988,245.192 845.551,179.499C847.052,176.446 846.897,172.84 845.14,169.926C843.383,167.013 840.265,165.193 836.865,165.096C800.585,164.055 709.627,161.45 659,160" style="fill:url(#_Linear1);fill-rule:nonzero;"/>
    <defs>
        <linearGradient id="_Linear1" x1="0" y1="0" x2="1" y2="0" gradientUnits="userSpaceOnUse" gradientTransform="matrix(-308,387,-387,-308,860,152)"><stop offset="0" style="stop-color:#5354c0;stop-opacity:1"/><stop offset="0" style="stop-color:#5f3283;stop-opacity:1"/><stop offset="0.67" style="stop-color:#583182;stop-opacity:1"/><stop offset="1" style="stop-color:#2d2e7c;stop-opacity:1"/></linearGradient>
    </defs>
</svg>
